<svg width="692" height="176" viewBox="0 0 692 176" fill="none" xmlns="http://www.w3.org/2000/svg">
<path fill-rule="evenodd" clip-rule="evenodd" d="M691.902 97.1972C691.902 97.4484 691.727 97.652 691.512 97.652C685.451 97.652 682.221 99.2127 677.056 101.708C676.653 101.903 676.237 102.103 675.808 102.31C675.088 102.655 674.269 102.442 673.45 101.952C672.623 101.458 671.72 100.638 670.779 99.611C668.895 97.5544 666.785 94.5895 664.726 91.486C663.345 89.4048 661.978 87.2475 660.712 85.2489C660.089 84.2666 659.491 83.3227 658.928 82.445C658.07 81.1098 657.293 79.9278 656.628 78.9883C655.955 78.0394 655.419 77.3694 655.04 77.0317C644.92 68.0132 630.778 75.3569 628.356 88.0588C627.759 91.1877 627.115 93.5381 626.414 95.2618C625.714 96.9828 624.943 98.115 624.074 98.7584C622.3 100.072 620.33 99.2137 618.326 97.9594C617.729 97.5853 617.121 97.1719 616.498 96.7486C614.966 95.7063 613.344 94.6033 611.563 93.8756C609.097 92.8677 606.388 92.616 603.363 94.3783C602.44 94.9163 601.14 96.2002 599.682 97.8734C598.236 99.5333 596.671 101.534 595.223 103.459C593.778 105.381 592.454 107.222 591.487 108.567L591.483 108.572C591 109.244 590.604 109.795 590.328 110.167C590.191 110.353 590.078 110.501 589.998 110.599C589.96 110.645 589.917 110.695 589.878 110.732L589.877 110.733C589.864 110.746 589.815 110.792 589.747 110.822C589.721 110.834 589.604 110.884 589.465 110.823C589.28 110.741 589.224 110.549 589.213 110.449C588.73 105.945 586.562 101.09 583.508 97.5418C580.453 93.9917 576.572 91.8163 572.675 92.515C566.369 93.6455 562.727 98.08 559.692 103.416C558.721 105.122 557.823 106.9 556.919 108.69C556.401 109.715 555.882 110.744 555.345 111.766C553.882 114.553 552.31 117.251 550.37 119.512C550.13 119.791 549.863 119.971 549.569 120.035C549.277 120.099 548.996 120.042 548.738 119.92C548.241 119.686 547.774 119.185 547.361 118.676C547.149 118.416 546.939 118.139 546.738 117.872L546.736 117.869C546.533 117.601 546.339 117.344 546.15 117.112C545.96 116.879 545.783 116.681 545.617 116.53C545.45 116.377 545.313 116.291 545.206 116.255C543.742 115.768 541.776 115.656 539.783 115.782C537.795 115.908 535.814 116.268 534.336 116.699C531.964 117.39 528.953 119.208 525.591 121.525C523.767 122.782 521.868 124.165 519.927 125.578C518.282 126.777 516.606 127.997 514.917 129.184C511.262 131.752 507.597 134.122 504.252 135.597C500.921 137.066 497.827 137.686 495.355 136.625C493.465 135.813 491.797 134.947 490.228 134.107C489.952 133.96 489.68 133.813 489.41 133.668C488.14 132.985 486.925 132.332 485.683 131.746C482.686 130.333 479.547 129.322 475.234 129.322C473.25 129.322 472.131 129.816 471.388 130.427C471.013 130.736 470.719 131.087 470.451 131.453C470.334 131.612 470.224 131.771 470.113 131.933L470.061 132.009C469.933 132.194 469.801 132.382 469.663 132.561C469.384 132.92 469.066 133.26 468.649 133.503C468.229 133.749 467.733 133.883 467.112 133.877C465.892 133.865 464.159 133.306 461.487 131.922C457.496 129.855 453.912 126.544 450.373 123.11C449.959 122.709 449.546 122.306 449.133 121.903C445.998 118.844 442.86 115.784 439.429 113.424C438.307 112.652 436.322 110.967 433.815 108.838C432.942 108.096 432.005 107.3 431.018 106.47C427.186 103.246 422.58 99.4785 417.972 96.2627C413.358 93.0416 408.774 90.3971 404.982 89.3882C403.087 88.884 401.423 88.7977 400.064 89.221C398.721 89.6393 397.657 90.5598 396.943 92.1317C394.791 96.869 394.944 102.084 395.1 107.411C395.112 107.827 395.124 108.243 395.135 108.66C395.287 114.371 395.232 120.156 391.874 125.188C387.197 132.195 383.904 140.862 383.904 149.98C383.904 152.298 383.324 159.167 382.453 165.16C382.018 168.156 381.505 170.963 380.948 172.886C380.673 173.836 380.372 174.624 380.037 175.105C379.87 175.345 379.658 175.562 379.393 175.639C379.101 175.724 378.83 175.617 378.608 175.402C376.483 173.337 372.941 172.316 368.658 171.81C364.993 171.378 360.857 171.329 356.722 171.28C356.043 171.272 355.363 171.264 354.686 171.254C349.903 171.185 345.223 171.032 341.464 170.175C337.728 169.323 334.754 167.744 333.585 164.68C332.859 162.777 332.556 160.937 332.346 159.265C332.298 158.881 332.254 158.508 332.213 158.148C332.07 156.916 331.942 155.818 331.681 154.837C331.351 153.601 330.818 152.602 329.786 151.86C328.736 151.105 327.131 150.589 324.611 150.434C321.039 150.215 318.619 149.476 316.978 148.22C315.316 146.948 314.498 145.182 314.064 143.05C313.69 141.212 313.594 139.062 313.489 136.695C313.474 136.353 313.459 136.006 313.442 135.655C313.311 132.856 313.112 129.736 312.425 126.332C312.314 125.784 312.201 124.972 312.073 124.05C312.035 123.781 311.997 123.502 311.956 123.218C311.775 121.945 311.559 120.535 311.273 119.254C310.984 117.962 310.636 116.855 310.212 116.157C310.002 115.811 309.792 115.599 309.591 115.498C309.402 115.402 309.188 115.387 308.92 115.509C302.427 118.451 295.75 120.511 289.053 122.576L288.622 122.709C283.331 124.341 279.698 125.224 277.134 125.355C274.556 125.487 272.975 124.861 271.887 123.377C271.357 122.654 270.963 121.752 270.619 120.704C270.276 119.656 269.972 118.433 269.634 117.059L269.592 116.887C268.922 114.16 268.094 110.789 266.526 106.769C265.17 103.292 263.29 100.91 261.144 98.7757C260.183 97.8201 259.173 96.9182 258.129 95.9866C258.004 95.8746 257.878 95.762 257.751 95.649C256.577 94.5988 255.367 93.5025 254.167 92.2588C253.294 91.3552 251.92 90.409 250.302 89.4041C249.593 88.9632 248.824 88.504 248.039 88.0345C247.075 87.4582 246.085 86.8665 245.146 86.2743C243.421 85.1861 241.769 84.0372 240.512 82.8188C239.266 81.6116 238.336 80.2691 238.185 78.7762C237.883 75.7754 236.863 74.3921 235.558 73.8926C234.196 73.3712 232.389 73.7526 230.423 74.667C226.512 76.4861 222.305 80.2497 220.573 81.864C218.462 83.8325 216.373 85.752 214.311 87.646C199.213 101.518 185.604 114.022 175.626 134.371L175.552 134.523C174.637 136.391 171.46 142.876 168.382 147.053C167.589 148.13 166.79 149.07 166.028 149.74C165.278 150.4 164.506 150.849 163.775 150.831C162.993 150.811 162.372 150.265 161.946 149.253C161.53 148.263 161.272 146.778 161.184 144.725C160.919 138.559 158.973 131.968 156.458 125.568C154.494 120.568 152.195 115.714 150.099 111.289C149.512 110.049 148.941 108.844 148.397 107.678C138.161 85.7127 126.812 63.0818 109.01 48.5991C107.719 47.5483 106.564 46.6327 105.517 45.8023C102.727 43.5901 100.7 41.9823 98.8752 40.0333C96.3484 37.3342 94.2075 33.983 90.9064 27.4914C90.6627 27.012 90.4179 26.5291 90.1719 26.0438C86.8035 19.3991 83.2042 12.2989 78.7664 7.40232C76.3919 4.78243 73.7947 2.81455 70.8856 1.88469C67.9819 0.956568 64.7388 1.0533 61.0537 2.61493C59.77 3.15889 58.3969 4.26242 56.9995 5.72414C55.606 7.18179 54.2094 8.97317 52.8774 10.8629C50.704 13.9464 48.7212 17.2639 47.2146 19.7847C46.8732 20.3559 46.5562 20.8863 46.267 21.3637C35.5084 39.1253 21.7231 52.9751 7.77551 66.988C5.52948 69.2446 3.27923 71.5053 1.0368 73.7873C0.874448 73.9525 0.627927 73.9331 0.486142 73.7439C0.344419 73.5547 0.361081 73.2674 0.523435 73.1022C2.7727 70.8133 5.0271 68.5482 7.27502 66.2895C21.2261 52.2719 34.9305 38.5021 45.6294 20.8392C45.9144 20.3687 46.2283 19.8435 46.5674 19.276C48.0737 16.7556 50.079 13.4002 52.2743 10.2856C53.6202 8.37626 55.0445 6.54691 56.4781 5.04729C57.9078 3.55173 59.368 2.36145 60.787 1.76015C64.6097 0.140221 68.0183 0.02508 71.092 1.00755C74.1603 1.98828 76.8665 4.05345 79.303 6.74185C83.8246 11.7309 87.4778 18.9392 90.8301 25.554C91.081 26.0489 91.3301 26.5406 91.5779 27.0277C94.867 33.4959 96.9614 36.7551 99.4026 39.3629C101.183 41.2642 103.145 42.8206 105.91 45.0134C106.965 45.8494 108.135 46.7779 109.457 47.8533C127.429 62.4742 138.853 85.2917 149.083 107.244C149.621 108.398 150.189 109.597 150.773 110.831C152.871 115.26 155.19 120.154 157.168 125.189C159.697 131.626 161.691 138.342 161.963 144.679C162.049 146.691 162.3 148.029 162.647 148.852C162.984 149.654 163.382 149.911 163.792 149.922C164.253 149.933 164.848 149.638 165.558 149.014C166.257 148.399 167.014 147.514 167.79 146.461C170.817 142.353 173.963 135.932 174.878 134.064L174.949 133.92C185.007 113.407 198.741 100.791 213.832 86.9275C215.893 85.034 217.98 83.1171 220.086 81.1537C221.815 79.5413 226.103 75.6969 230.134 73.8222C232.139 72.8896 234.167 72.4027 235.802 73.0285C237.494 73.6762 238.636 75.4556 238.961 78.67C239.075 79.8023 239.804 80.9501 241.011 82.1195C242.206 83.2777 243.801 84.3918 245.517 85.4744C246.469 86.0746 247.428 86.6477 248.373 87.2118C249.153 87.6778 249.923 88.1377 250.67 88.6016C252.284 89.6044 253.735 90.5951 254.685 91.579C255.863 92.7991 257.053 93.8782 258.226 94.9274C258.353 95.0404 258.479 95.1531 258.605 95.2656C259.646 96.195 260.673 97.1119 261.65 98.0838C263.849 100.27 265.818 102.755 267.237 106.393C268.829 110.474 269.67 113.9 270.341 116.629L270.385 116.809C270.725 118.192 271.019 119.375 271.348 120.379C271.677 121.381 272.032 122.175 272.481 122.786C273.349 123.971 274.644 124.572 277.1 124.447C279.57 124.32 283.128 123.463 288.422 121.83L288.835 121.702C295.545 119.633 302.186 117.585 308.637 114.661C309.081 114.46 309.509 114.465 309.901 114.663C310.281 114.854 310.591 115.208 310.849 115.632C311.359 116.472 311.735 117.715 312.028 119.025C312.324 120.348 312.545 121.793 312.726 123.069C312.769 123.368 312.809 123.656 312.847 123.931C312.974 124.844 313.081 125.61 313.185 126.124C313.888 129.609 314.09 132.795 314.222 135.605C314.238 135.961 314.254 136.309 314.269 136.651C314.375 139.032 314.467 141.089 314.823 142.84C315.225 144.815 315.956 146.35 317.406 147.46C318.877 148.586 321.133 149.31 324.652 149.526C327.229 149.684 328.985 150.215 330.196 151.086C331.425 151.97 332.055 153.176 332.426 154.567C332.709 155.628 332.848 156.829 332.992 158.076C333.033 158.425 333.074 158.778 333.118 159.133C333.325 160.777 333.616 162.521 334.298 164.311C335.299 166.933 337.912 168.438 341.614 169.282C345.293 170.121 349.903 170.276 354.695 170.345C355.369 170.354 356.046 170.362 356.724 170.37C360.856 170.419 365.033 170.468 368.736 170.905C373.031 171.412 376.786 172.448 379.108 174.703C379.181 174.774 379.203 174.756 379.204 174.756C379.231 174.748 379.31 174.705 379.431 174.532C379.672 174.186 379.937 173.532 380.209 172.595C380.745 170.744 381.25 167.995 381.684 165.008C382.552 159.034 383.123 152.223 383.123 149.98C383.123 140.608 386.506 131.749 391.258 124.629C394.426 119.882 394.508 114.409 394.355 108.688C394.344 108.261 394.331 107.832 394.318 107.402C394.161 102.123 393.999 96.6679 396.253 91.7061C397.073 89.903 398.317 88.8237 399.862 88.3423C401.392 87.8659 403.196 87.9801 405.156 88.5015C409.074 89.5438 413.744 92.2512 418.374 95.4824C423.01 98.719 427.638 102.505 431.475 105.733C432.483 106.581 433.434 107.389 434.316 108.137C436.805 110.251 438.738 111.893 439.826 112.64C443.316 115.041 446.506 118.153 449.635 121.207C450.048 121.61 450.461 122.012 450.872 122.411C454.415 125.848 457.923 129.081 461.804 131.091C464.46 132.466 466.069 132.957 467.119 132.968C467.634 132.973 468.005 132.862 468.299 132.69C468.596 132.517 468.839 132.267 469.083 131.952C469.205 131.793 469.325 131.623 469.453 131.438C469.579 131.256 469.714 131.059 469.858 130.862C470.149 130.465 470.49 130.053 470.938 129.684C471.844 128.938 473.133 128.412 475.234 128.412C479.669 128.412 482.908 129.456 485.976 130.903C487.237 131.498 488.472 132.162 489.743 132.846C490.011 132.99 490.281 133.135 490.553 133.281C492.118 134.118 493.764 134.972 495.625 135.771C497.82 136.714 500.686 136.197 503.976 134.746C507.251 133.302 510.865 130.968 514.514 128.405C516.171 127.241 517.846 126.021 519.495 124.82C521.454 123.395 523.377 121.994 525.194 120.742C528.553 118.428 531.652 116.543 534.147 115.817C535.676 115.371 537.706 115.003 539.74 114.874C541.768 114.746 543.834 114.852 545.42 115.381C545.664 115.462 545.892 115.626 546.098 115.814C546.307 116.004 546.514 116.238 546.716 116.485C546.916 116.73 547.118 116.998 547.317 117.262L547.324 117.271C547.527 117.54 547.727 117.805 547.927 118.051C548.337 118.555 548.704 118.923 549.031 119.077C549.185 119.15 549.313 119.166 549.425 119.141C549.536 119.117 549.667 119.045 549.818 118.869C551.692 116.685 553.225 114.061 554.68 111.291C555.201 110.299 555.714 109.283 556.229 108.263C557.142 106.456 558.061 104.637 559.041 102.913C562.128 97.4876 565.933 92.8034 572.556 91.616C576.785 90.8578 580.902 93.2286 584.059 96.8977C587.011 100.327 589.179 104.948 589.865 109.399C590.126 109.043 590.472 108.563 590.885 107.988L590.89 107.981C591.857 106.636 593.185 104.789 594.636 102.859C596.089 100.927 597.668 98.9081 599.134 97.2254C600.589 95.5561 601.968 94.1747 603.014 93.5648C606.269 91.6681 609.205 91.9479 611.822 93.0173C613.677 93.7757 615.405 94.9505 616.96 96.0078C617.566 96.4196 618.145 96.8135 618.696 97.1581C620.725 98.4281 622.299 98.9952 623.656 97.9908C624.352 97.4753 625.042 96.5126 625.709 94.8723C626.375 93.2347 627.003 90.9574 627.594 87.8615C630.131 74.5532 644.912 66.8611 655.514 76.3092C655.971 76.717 656.558 77.4616 657.23 78.4092C657.908 79.3662 658.694 80.5626 659.553 81.9001C660.122 82.7869 660.723 83.7358 661.347 84.7207C662.611 86.7145 663.968 88.8561 665.344 90.9297C667.399 94.028 669.477 96.9436 671.313 98.9471C672.232 99.9503 673.073 100.705 673.806 101.143C674.548 101.586 675.105 101.663 675.51 101.469C675.943 101.261 676.362 101.059 676.769 100.862C681.935 98.3654 685.293 96.7424 691.512 96.7424C691.727 96.7424 691.902 96.946 691.902 97.1972Z" fill="white"/>
</svg>
